<svg width="82" height="14" viewBox="0 0 82 14" fill="none" xmlns="http://www.w3.org/2000/svg">
<path d="M2.18164 11.6201H8.24609V13H0.485352V0.203125H2.18164V11.6201ZM19.4346 7.01465C19.4346 8.26855 19.2236 9.36426 18.8018 10.3018C18.3799 11.2334 17.7822 11.9453 17.0088 12.4375C16.2354 12.9297 15.333 13.1758 14.3018 13.1758C13.2939 13.1758 12.4004 12.9297 11.6211 12.4375C10.8418 11.9395 10.2354 11.2334 9.80176 10.3193C9.37402 9.39941 9.1543 8.33594 9.14258 7.12891V6.20605C9.14258 4.97559 9.35645 3.88867 9.78418 2.94531C10.2119 2.00195 10.8154 1.28125 11.5947 0.783203C12.3799 0.279297 13.2764 0.0273438 14.2842 0.0273438C15.3096 0.0273438 16.2119 0.276367 16.9912 0.774414C17.7764 1.2666 18.3799 1.98438 18.8018 2.92773C19.2236 3.86523 19.4346 4.95801 19.4346 6.20605V7.01465ZM17.7559 6.18848C17.7559 4.6709 17.4512 3.50781 16.8418 2.69922C16.2324 1.88477 15.3799 1.47754 14.2842 1.47754C13.2178 1.47754 12.377 1.88477 11.7617 2.69922C11.1523 3.50781 10.8389 4.63281 10.8213 6.07422V7.01465C10.8213 8.48535 11.1289 9.64258 11.7441 10.4863C12.3652 11.3242 13.2178 11.7432 14.3018 11.7432C15.3916 11.7432 16.2354 11.3477 16.833 10.5566C17.4307 9.75977 17.7383 8.62012 17.7559 7.1377V6.18848ZM31.4141 11.3213C30.9805 11.9424 30.374 12.4082 29.5947 12.7188C28.8213 13.0234 27.9189 13.1758 26.8877 13.1758C25.8447 13.1758 24.9189 12.9326 24.1104 12.4463C23.3018 11.9541 22.6748 11.2568 22.2295 10.3545C21.79 9.45215 21.5645 8.40625 21.5527 7.2168V6.10059C21.5527 4.17285 22.001 2.67871 22.8975 1.61816C23.7998 0.557617 25.0654 0.0273438 26.6943 0.0273438C28.0303 0.0273438 29.1055 0.370117 29.9199 1.05566C30.7344 1.73535 31.2324 2.70215 31.4141 3.95605H29.7266C29.4102 2.2627 28.4023 1.41602 26.7031 1.41602C25.5723 1.41602 24.7139 1.81445 24.1279 2.61133C23.5479 3.40234 23.2549 4.55078 23.249 6.05664V7.10254C23.249 8.53809 23.5771 9.68066 24.2334 10.5303C24.8896 11.374 25.7773 11.7959 26.8965 11.7959C27.5293 11.7959 28.083 11.7256 28.5576 11.585C29.0322 11.4443 29.4248 11.207 29.7354 10.873V7.99902H26.7734V6.62793H31.4141V11.3213ZM44.0791 7.01465C44.0791 8.26855 43.8682 9.36426 43.4463 10.3018C43.0244 11.2334 42.4268 11.9453 41.6533 12.4375C40.8799 12.9297 39.9775 13.1758 38.9463 13.1758C37.9385 13.1758 37.0449 12.9297 36.2656 12.4375C35.4863 11.9395 34.8799 11.2334 34.4463 10.3193C34.0186 9.39941 33.7988 8.33594 33.7871 7.12891V6.20605C33.7871 4.97559 34.001 3.88867 34.4287 2.94531C34.8564 2.00195 35.46 1.28125 36.2393 0.783203C37.0244 0.279297 37.9209 0.0273438 38.9287 0.0273438C39.9541 0.0273438 40.8564 0.276367 41.6357 0.774414C42.4209 1.2666 43.0244 1.98438 43.4463 2.92773C43.8682 3.86523 44.0791 4.95801 44.0791 6.20605V7.01465ZM42.4004 6.18848C42.4004 4.6709 42.0957 3.50781 41.4863 2.69922C40.877 1.88477 40.0244 1.47754 38.9287 1.47754C37.8623 1.47754 37.0215 1.88477 36.4062 2.69922C35.7969 3.50781 35.4834 4.63281 35.4658 6.07422V7.01465C35.4658 8.48535 35.7734 9.64258 36.3887 10.4863C37.0098 11.3242 37.8623 11.7432 38.9463 11.7432C40.0361 11.7432 40.8799 11.3477 41.4775 10.5566C42.0752 9.75977 42.3828 8.62012 42.4004 7.1377V6.18848ZM45.4941 12.1475C45.4941 11.8662 45.5762 11.6318 45.7402 11.4443C45.9102 11.2568 46.1621 11.1631 46.4961 11.1631C46.8301 11.1631 47.082 11.2568 47.252 11.4443C47.4277 11.6318 47.5156 11.8662 47.5156 12.1475C47.5156 12.417 47.4277 12.6426 47.252 12.8242C47.082 13.0059 46.8301 13.0967 46.4961 13.0967C46.1621 13.0967 45.9102 13.0059 45.7402 12.8242C45.5762 12.6426 45.4941 12.417 45.4941 12.1475ZM54.2305 7.2959C52.7832 6.87988 51.7285 6.37012 51.0664 5.7666C50.4102 5.15723 50.082 4.40723 50.082 3.5166C50.082 2.50879 50.4834 1.67676 51.2861 1.02051C52.0947 0.358398 53.1436 0.0273438 54.4326 0.0273438C55.3115 0.0273438 56.0938 0.197266 56.7793 0.537109C57.4707 0.876953 58.0039 1.3457 58.3789 1.94336C58.7598 2.54102 58.9502 3.19434 58.9502 3.90332H57.2539C57.2539 3.12988 57.0078 2.52344 56.5156 2.08398C56.0234 1.63867 55.3291 1.41602 54.4326 1.41602C53.6006 1.41602 52.9502 1.60059 52.4814 1.96973C52.0186 2.33301 51.7871 2.83984 51.7871 3.49023C51.7871 4.01172 52.0068 4.4541 52.4463 4.81738C52.8916 5.1748 53.6445 5.50293 54.7051 5.80176C55.7715 6.10059 56.6035 6.43164 57.2012 6.79492C57.8047 7.15234 58.25 7.57129 58.5371 8.05176C58.8301 8.53223 58.9766 9.09766 58.9766 9.74805C58.9766 10.7852 58.5723 11.6172 57.7637 12.2441C56.9551 12.8652 55.874 13.1758 54.5205 13.1758C53.6416 13.1758 52.8213 13.0088 52.0596 12.6748C51.2979 12.335 50.709 11.8721 50.293 11.2861C49.8828 10.7002 49.6777 10.0352 49.6777 9.29102H51.374C51.374 10.0645 51.6582 10.6768 52.2266 11.1279C52.8008 11.5732 53.5654 11.7959 54.5205 11.7959C55.4111 11.7959 56.0938 11.6143 56.5684 11.251C57.043 10.8877 57.2803 10.3926 57.2803 9.76562C57.2803 9.13867 57.0605 8.65527 56.6211 8.31543C56.1816 7.96973 55.3848 7.62988 54.2305 7.2959ZM65.3838 10.7588L69.04 0.203125H70.8857L66.1396 13H64.6455L59.9082 0.203125H61.7451L65.3838 10.7588ZM81.9336 11.3213C81.5 11.9424 80.8936 12.4082 80.1143 12.7188C79.3408 13.0234 78.4385 13.1758 77.4072 13.1758C76.3643 13.1758 75.4385 12.9326 74.6299 12.4463C73.8213 11.9541 73.1943 11.2568 72.749 10.3545C72.3096 9.45215 72.084 8.40625 72.0723 7.2168V6.10059C72.0723 4.17285 72.5205 2.67871 73.417 1.61816C74.3193 0.557617 75.585 0.0273438 77.2139 0.0273438C78.5498 0.0273438 79.625 0.370117 80.4395 1.05566C81.2539 1.73535 81.752 2.70215 81.9336 3.95605H80.2461C79.9297 2.2627 78.9219 1.41602 77.2227 1.41602C76.0918 1.41602 75.2334 1.81445 74.6475 2.61133C74.0674 3.40234 73.7744 4.55078 73.7686 6.05664V7.10254C73.7686 8.53809 74.0967 9.68066 74.7529 10.5303C75.4092 11.374 76.2969 11.7959 77.416 11.7959C78.0488 11.7959 78.6025 11.7256 79.0771 11.585C79.5518 11.4443 79.9443 11.207 80.2549 10.873V7.99902H77.293V6.62793H81.9336V11.3213Z" fill="white"/>
</svg>
